<?xml version="1.0" encoding="utf-8"?>
<!-- Generator: Adobe Illustrator 17.0.0, SVG Export Plug-In . SVG Version: 6.00 Build 0)  -->
<!DOCTYPE svg PUBLIC "-//W3C//DTD SVG 1.1//EN" "http://www.w3.org/Graphics/SVG/1.1/DTD/svg11.dtd">
<svg version="1.1" id="Forma_3_1_" xmlns="http://www.w3.org/2000/svg" xmlns:xlink="http://www.w3.org/1999/xlink" x="0px" y="0px"
	 width="247px" height="239px" viewBox="0 0 247 239" enable-background="new 0 0 247 239" xml:space="preserve">
<g id="Forma_3">
	<g>
		<path fill-rule="evenodd" clip-rule="evenodd" fill="#EDB001" d="M71.161,67.671c-2.352,0-4.265,1.923-4.265,4.288v19.183v3.023
			c0,0.711-0.573,1.287-1.28,1.287c-0.707,0-1.28-0.576-1.28-1.287v-3.023V71.959V59.757c0-2.514-2.035-4.56-4.536-4.56
			s-4.536,2.046-4.536,4.56v21.482v12.924c0,0.711-0.573,1.286-1.28,1.286s-1.28-0.576-1.28-1.286V81.239V59.757v-9.578
			c0-2.693-2.179-4.885-4.859-4.885c-2.679,0-4.859,2.19-4.859,4.885v43.984c0,0.711-0.572,1.286-1.279,1.286
			c-0.707,0-1.28-0.576-1.28-1.286V58.621c0-2.544-2.058-4.615-4.59-4.615c-2.53,0-4.59,2.069-4.59,4.615v26.453v3.14v3.365
			c0.002,0.103,0.003,2.533-1.794,4.356c-0.888,0.902-2.046,1.471-3.429,1.739c1.009,1.276,1.993,2.575,2.96,3.869
			c0.424,0.568,0.309,1.374-0.255,1.8c-0.565,0.428-1.368,0.311-1.791-0.257c-5.077-6.802-10.633-13.693-17.793-16.675
			c-2.833-1.181-5.153-1.512-6.53-0.935c-0.653,0.274-1.096,0.744-1.394,1.477c-1.076,2.645,1.21,4.629,4.556,7.143
			c0.785,0.589,1.527,1.148,2.132,1.699c2.852,2.596,6.812,6.64,8.289,11.754c0.391,1.359,0.651,2.74,0.904,4.075
			c0.323,1.712,0.628,3.328,1.187,4.917c6.051,17.179,15.074,19.034,18.673,19.034c0.707,0,1.28,0.576,1.28,1.286
			c0,0.711-0.573,1.287-1.28,1.287c-0.792,0-1.558-0.062-2.302-0.174v101.026h28.995V137.867c-0.697,0.187-1.36,0.288-2.446,0.288
			c-0.177,0-0.366-0.003-0.568-0.008c-0.706-0.015-1.264-0.606-1.247-1.316c0.015-0.71,0.602-1.289,1.309-1.254
			c1.671,0.039,2.063-0.09,3.223-0.477c0.19-0.064,0.396-0.133,0.627-0.207c3.278-1.063,5.806-3.434,7.953-7.467
			c3.041-5.711,2.92-14.595,2.919-14.707V98.108c0-0.003,0.002-0.006,0.002-0.009V71.959C75.426,69.594,73.513,67.671,71.161,67.671
			z M198.331,60.373c-0.433-1.062-1.074-1.743-2.021-2.14c-1.996-0.837-5.358-0.356-9.464,1.355
			c-10.377,4.322-18.428,14.308-25.786,24.166c-0.612,0.823-1.776,0.992-2.595,0.372c-0.818-0.618-0.984-1.786-0.37-2.609
			c1.402-1.876,2.828-3.758,4.29-5.607c-2.005-0.388-3.682-1.213-4.97-2.521c-2.604-2.642-2.601-6.164-2.599-6.313v-4.877v-4.55
			V19.313c0-3.688-2.985-6.687-6.652-6.687c-3.669,0-6.652,3.001-6.652,6.687v51.509c0,1.03-0.83,1.864-1.855,1.864
			c-1.025,0-1.854-0.834-1.854-1.864V7.079c0-3.905-3.16-7.08-7.042-7.08c-3.884,0-7.042,3.177-7.042,7.08v13.88v31.133v18.73
			c0,1.03-0.83,1.864-1.855,1.864c-1.025,0-1.854-0.834-1.854-1.864v-18.73V20.959c0-3.644-2.949-6.609-6.573-6.609
			c-3.624,0-6.573,2.965-6.573,6.609v17.683v27.8v4.381c0,1.03-0.83,1.865-1.855,1.865c-1.025,0-1.855-0.834-1.855-1.865v-4.381
			v-27.8c0-3.427-2.772-6.214-6.181-6.214c-3.409,0-6.181,2.787-6.181,6.214v37.883c0,0.005,0.002,0.009,0.002,0.014v21.174
			c-0.002,0.162-0.177,13.037,4.229,21.314c3.111,5.844,6.775,9.28,11.525,10.82c0.334,0.108,0.632,0.207,0.908,0.3
			c1.682,0.561,2.249,0.749,4.672,0.692c1.025-0.05,1.875,0.789,1.897,1.817c0.025,1.028-0.785,1.885-1.808,1.908
			c-0.294,0.007-0.567,0.011-0.823,0.011c-1.574,0-2.537-0.147-3.546-0.417v104.841h42.021V134.311
			c-1.079,0.163-2.189,0.253-3.337,0.253c-1.025,0-1.855-0.834-1.855-1.865s0.83-1.865,1.855-1.865
			c5.216,0,18.293-2.688,27.062-27.584c0.81-2.302,1.251-4.644,1.72-7.125c0.366-1.934,0.742-3.937,1.31-5.905
			c2.14-7.411,7.879-13.271,12.012-17.034c0.877-0.798,1.953-1.608,3.09-2.463C196.577,67.081,199.89,64.206,198.331,60.373z
			 M246.808,105.904c-0.21-0.516-0.522-0.846-0.982-1.039c-0.97-0.406-2.603-0.173-4.598,0.658
			c-5.042,2.1-8.954,6.952-12.529,11.742c-0.298,0.4-0.863,0.482-1.261,0.181c-0.398-0.3-0.479-0.868-0.18-1.268
			c0.681-0.911,1.374-1.826,2.084-2.724c-0.974-0.188-1.789-0.59-2.414-1.225c-1.265-1.284-1.264-2.995-1.263-3.068v-2.37v-2.211
			V85.953c0-1.792-1.45-3.249-3.232-3.249c-1.783,0-3.232,1.458-3.232,3.249v25.027c0,0.501-0.403,0.906-0.901,0.906
			c-0.498,0-0.901-0.405-0.901-0.906V80.009c0-1.898-1.535-3.44-3.422-3.44c-1.887,0-3.421,1.543-3.421,3.44v6.744v15.127v9.1
			c0,0.501-0.403,0.906-0.901,0.906c-0.498,0-0.901-0.405-0.901-0.906v-9.1V86.753c0-1.77-1.433-3.211-3.194-3.211
			s-3.194,1.441-3.194,3.211v8.592v13.508v2.129c0,0.5-0.403,0.906-0.901,0.906c-0.498,0-0.901-0.406-0.901-0.906v-2.129V95.345
			c0-1.665-1.347-3.019-3.003-3.019s-3.003,1.354-3.003,3.019v18.407c0,0.002,0.001,0.004,0.001,0.007v10.288
			c-0.001,0.079-0.086,6.334,2.055,10.356c1.511,2.839,3.292,4.509,5.6,5.257c0.162,0.052,0.307,0.101,0.441,0.146
			c0.817,0.273,1.093,0.364,2.27,0.336c0.498-0.024,0.911,0.383,0.922,0.883c0.012,0.499-0.381,0.916-0.878,0.927
			c-0.143,0.004-0.276,0.006-0.4,0.006c-0.765,0-1.232-0.071-1.723-0.203v97.244h20.417v-97.17
			c-0.524,0.079-1.063,0.122-1.621,0.122c-0.498,0-0.901-0.405-0.901-0.906s0.403-0.906,0.901-0.906
			c2.534,0,8.888-1.306,13.149-13.403c0.393-1.119,0.608-2.257,0.836-3.462c0.178-0.94,0.361-1.912,0.636-2.869
			c1.039-3.601,3.828-6.448,5.836-8.277c0.426-0.388,0.949-0.781,1.502-1.196C245.956,109.163,247.565,107.766,246.808,105.904z"/>
	</g>
</g>
</svg>
