<?xml version="1.0" encoding="utf-8"?>
<!-- Generator: Adobe Illustrator 17.0.0, SVG Export Plug-In . SVG Version: 6.00 Build 0)  -->
<!DOCTYPE svg PUBLIC "-//W3C//DTD SVG 1.1//EN" "http://www.w3.org/Graphics/SVG/1.1/DTD/svg11.dtd">
<svg version="1.1" xmlns="http://www.w3.org/2000/svg" xmlns:xlink="http://www.w3.org/1999/xlink" x="0px" y="0px" width="37px"
	 height="28px" viewBox="0 0 37 28" enable-background="new 0 0 37 28" xml:space="preserve">
<g id="Layer_2" display="none">
	<rect x="-173.438" y="-207.813" display="inline" stroke="#FFFFFF" stroke-miterlimit="10" width="477" height="407"/>
</g>
<g id="Shape_1_1_">
	<g id="Shape_1">
		<g>
			<path fill="#FFFFFF" d="M28.539,17.924c-0.657,0.668-0.657,1.752,0,2.42c0.328,0.334,0.759,0.502,1.189,0.502
				s0.861-0.167,1.189-0.502l5.045-5.134c0.039-0.04,0.076-0.082,0.111-0.125c0.008-0.01,0.014-0.02,0.022-0.03
				c0.026-0.034,0.052-0.069,0.076-0.104c0.006-0.01,0.011-0.019,0.017-0.029c0.023-0.037,0.047-0.076,0.068-0.115
				c0.003-0.007,0.006-0.014,0.01-0.021c0.022-0.043,0.042-0.086,0.06-0.131c0.002-0.004,0.003-0.009,0.005-0.014
				c0.019-0.047,0.036-0.095,0.051-0.144c0.002-0.005,0.003-0.011,0.004-0.016c0.014-0.048,0.026-0.096,0.036-0.146
				c0.002-0.014,0.004-0.028,0.006-0.042c0.007-0.041,0.014-0.082,0.018-0.124c0.006-0.056,0.008-0.114,0.008-0.171
				s-0.003-0.115-0.008-0.171c-0.004-0.042-0.011-0.084-0.018-0.125c-0.002-0.013-0.003-0.028-0.006-0.041
				c-0.01-0.05-0.022-0.099-0.036-0.147c-0.002-0.005-0.002-0.01-0.004-0.015c-0.015-0.049-0.032-0.097-0.051-0.144
				c-0.002-0.004-0.003-0.009-0.005-0.013c-0.019-0.045-0.039-0.089-0.061-0.132c-0.003-0.006-0.006-0.013-0.01-0.02
				c-0.021-0.04-0.044-0.078-0.068-0.115c-0.006-0.01-0.011-0.019-0.017-0.029c-0.024-0.036-0.05-0.07-0.077-0.105
				c-0.007-0.009-0.014-0.02-0.022-0.03c-0.035-0.044-0.072-0.085-0.111-0.125l-5.043-5.131c-0.657-0.668-1.722-0.668-2.378,0
				c-0.657,0.668-0.657,1.752,0,2.42l2.174,2.212H11.229C10.3,12.288,9.547,13.055,9.547,14s0.753,1.712,1.682,1.712h19.485
				L28.539,17.924z M0.547,14c0,7.719,6.172,14,13.757,14c4.577,0,8.842-2.308,11.407-6.172c0.52-0.783,0.317-1.847-0.452-2.376
				c-0.77-0.529-1.815-0.323-2.335,0.46c-1.939,2.921-5.162,4.665-8.62,4.665C8.573,24.577,3.91,19.832,3.91,14
				c0-5.833,4.662-10.577,10.393-10.577c3.469,0,6.696,1.752,8.634,4.686c0.518,0.783,1.563,0.992,2.334,0.465
				c0.771-0.527,0.976-1.591,0.458-2.375C23.166,2.318,18.895,0,14.304,0C6.719,0,0.547,6.281,0.547,14z"/>
		</g>
	</g>
</g>
</svg>
