<?xml version="1.0" encoding="utf-8"?>
<!-- Generator: Adobe Illustrator 17.0.0, SVG Export Plug-In . SVG Version: 6.00 Build 0)  -->
<!DOCTYPE svg PUBLIC "-//W3C//DTD SVG 1.1//EN" "http://www.w3.org/Graphics/SVG/1.1/DTD/svg11.dtd">
<svg version="1.1" id="logo_xA0_Image_1_" xmlns="http://www.w3.org/2000/svg" xmlns:xlink="http://www.w3.org/1999/xlink" x="0px"
	 y="0px" width="165.667px" height="110.667px" viewBox="0 0 165.667 110.667" enable-background="new 0 0 165.667 110.667"
	 xml:space="preserve">
<path fill="#FFFFFF" d="M17.301,36.912l6.567,16.114H10.644L17.301,36.912z M15.97,33.146L2.333,65.745h3.444l4.178-10.194h14.647
	l4.225,10.194h3.397L18.679,33.146H15.97z"/>
<g>
	<path fill="#FFFFFF" d="M56.191,64.597c-0.184,0.092-0.452,0.214-0.804,0.367c-0.352,0.154-0.757,0.306-1.217,0.459
		c-0.459,0.154-0.979,0.291-1.56,0.413c-0.582,0.122-1.194,0.184-1.837,0.184c-0.674,0-1.316-0.092-1.928-0.275
		c-0.613-0.184-1.148-0.467-1.607-0.85c-0.459-0.382-0.827-0.864-1.102-1.446c-0.276-0.581-0.414-1.255-0.414-2.021V44.302h-3.305
		v-2.479h3.305v-8.08h3.123v8.08h5.51v2.479h-5.51v16.254c0.061,0.889,0.374,1.538,0.941,1.951c0.566,0.413,1.216,0.62,1.951,0.62
		c0.888,0,1.668-0.144,2.342-0.436c0.673-0.29,1.102-0.497,1.286-0.619L56.191,64.597z"/>
	<path fill="#FFFFFF" d="M68.772,66.204c-1.745,0-3.337-0.33-4.776-0.988c-1.439-0.657-2.685-1.552-3.742-2.685
		c-1.055-1.132-1.875-2.448-2.456-3.949c-0.582-1.499-0.872-3.077-0.872-4.729c0-1.684,0.298-3.275,0.895-4.775
		c0.597-1.499,1.423-2.816,2.479-3.949c1.057-1.132,2.303-2.036,3.742-2.709c1.439-0.672,3.015-1.01,4.73-1.01
		c1.714,0,3.298,0.338,4.752,1.01c1.453,0.673,2.709,1.577,3.765,2.709c1.056,1.133,1.882,2.45,2.479,3.949
		c0.597,1.5,0.895,3.091,0.895,4.775c0,1.652-0.291,3.23-0.872,4.729c-0.582,1.501-1.4,2.817-2.456,3.949
		c-1.056,1.133-2.312,2.028-3.765,2.685C72.116,65.874,70.516,66.204,68.772,66.204 M60.094,53.899c0,1.347,0.23,2.594,0.689,3.742
		c0.459,1.148,1.079,2.157,1.859,3.03c0.781,0.873,1.699,1.554,2.755,2.043c1.056,0.491,2.181,0.735,3.375,0.735
		c1.193,0,2.318-0.252,3.374-0.758c1.056-0.505,1.982-1.193,2.778-2.065c0.796-0.873,1.423-1.89,1.883-3.054
		c0.459-1.163,0.688-2.418,0.688-3.765c0-1.316-0.229-2.563-0.688-3.742c-0.46-1.178-1.087-2.204-1.883-3.076
		c-0.796-0.873-1.722-1.562-2.778-2.067s-2.181-0.757-3.374-0.757c-1.194,0-2.312,0.252-3.352,0.757
		c-1.041,0.505-1.959,1.202-2.755,2.089c-0.797,0.889-1.423,1.922-1.882,3.1C60.324,51.29,60.094,52.552,60.094,53.899"/>
	<path fill="#FFFFFF" d="M94.804,66.204c-1.653,0-3.184-0.344-4.591-1.033c-1.409-0.689-2.618-1.599-3.628-2.732
		c-1.01-1.132-1.798-2.44-2.365-3.926c-0.566-1.484-0.849-3.038-0.849-4.66c0-1.683,0.276-3.283,0.827-4.798
		c0.551-1.515,1.309-2.838,2.272-3.971c0.964-1.133,2.113-2.028,3.444-2.687c1.332-0.658,2.793-0.987,4.385-0.987
		c2.02,0,3.811,0.528,5.372,1.584c1.561,1.057,2.785,2.335,3.673,3.834V32.227h3.123v29.478c0,0.856,0.367,1.285,1.101,1.285v2.755
		c-0.459,0.092-0.826,0.138-1.101,0.138c-0.735,0-1.378-0.237-1.929-0.712c-0.551-0.474-0.826-1.048-0.826-1.722v-2.342
		c-0.949,1.562-2.236,2.801-3.858,3.72C98.232,65.745,96.549,66.204,94.804,66.204 M95.493,63.449c0.765,0,1.584-0.152,2.456-0.459
		c0.873-0.306,1.691-0.727,2.457-1.263c0.764-0.535,1.415-1.163,1.951-1.883c0.535-0.718,0.865-1.492,0.987-2.318v-7.393
		c-0.306-0.826-0.75-1.598-1.331-2.318c-0.583-0.719-1.248-1.354-1.998-1.905c-0.75-0.551-1.553-0.98-2.41-1.286
		c-0.858-0.306-1.699-0.459-2.526-0.459c-1.285,0-2.449,0.275-3.489,0.827c-1.041,0.551-1.936,1.278-2.686,2.181
		c-0.75,0.903-1.324,1.936-1.722,3.098c-0.398,1.164-0.597,2.358-0.597,3.582c0,1.285,0.23,2.51,0.689,3.673
		c0.459,1.164,1.086,2.181,1.883,3.054c0.795,0.872,1.736,1.568,2.823,2.089C93.066,63.189,94.237,63.449,95.493,63.449"/>
	<path fill="#FFFFFF" d="M118.634,66.204c-1.133,0-2.182-0.192-3.146-0.574c-0.964-0.382-1.806-0.911-2.525-1.585
		c-0.72-0.672-1.279-1.46-1.676-2.364c-0.398-0.902-0.597-1.875-0.597-2.915c0-1.041,0.245-2.005,0.735-2.893
		c0.489-0.887,1.178-1.653,2.066-2.295c0.888-0.644,1.943-1.141,3.168-1.492c1.224-0.352,2.571-0.529,4.041-0.529
		c1.224,0,2.463,0.108,3.719,0.321c1.255,0.215,2.372,0.521,3.351,0.918v-2.157c0-2.112-0.596-3.788-1.79-5.028
		c-1.194-1.239-2.847-1.859-4.959-1.859c-1.224,0-2.479,0.245-3.765,0.734c-1.286,0.49-2.587,1.194-3.903,2.112l-1.102-2.066
		c3.092-2.081,6.091-3.122,9-3.122c2.999,0,5.356,0.843,7.07,2.525c1.714,1.684,2.571,4.011,2.571,6.98v10.79
		c0,0.856,0.383,1.285,1.149,1.285v2.755c-0.522,0.092-0.919,0.137-1.195,0.137c-0.795,0-1.415-0.198-1.859-0.596
		c-0.444-0.398-0.681-0.949-0.712-1.654l-0.092-1.881c-1.101,1.438-2.487,2.541-4.155,3.305
		C122.36,65.821,120.562,66.204,118.634,66.204 M119.368,63.816c1.622,0,3.114-0.306,4.477-0.918
		c1.361-0.612,2.395-1.424,3.099-2.434c0.276-0.275,0.482-0.574,0.62-0.895c0.137-0.321,0.206-0.619,0.206-0.896v-3.902
		c-1.041-0.397-2.12-0.704-3.237-0.918c-1.117-0.214-2.257-0.321-3.42-0.321c-2.204,0-3.995,0.459-5.372,1.377
		c-1.378,0.918-2.066,2.128-2.066,3.627c0,0.735,0.145,1.424,0.436,2.066c0.29,0.643,0.689,1.202,1.193,1.676
		c0.505,0.476,1.11,0.85,1.814,1.125C117.822,63.678,118.572,63.816,119.368,63.816"/>
	<path fill="#FFFFFF" d="M12.483,89.012c0-1.989,0.359-3.956,1.079-5.9c0.719-1.944,1.768-3.68,3.145-5.211
		c1.378-1.531,3.06-2.77,5.05-3.719c1.99-0.948,4.255-1.424,6.796-1.424c2.999,0,5.594,0.659,7.783,1.975
		c2.188,1.316,3.817,3.03,4.889,5.142l-4.866,3.352c-0.43-0.918-0.95-1.692-1.562-2.319c-0.612-0.626-1.27-1.125-1.974-1.492
		c-0.705-0.367-1.439-0.634-2.204-0.804c-0.765-0.167-1.515-0.252-2.25-0.252c-1.592,0-2.977,0.321-4.155,0.964
		c-1.179,0.643-2.158,1.477-2.938,2.502c-0.781,1.027-1.371,2.189-1.769,3.49c-0.397,1.301-0.596,2.594-0.596,3.88
		c0,1.439,0.229,2.824,0.688,4.155c0.46,1.332,1.11,2.503,1.952,3.512c0.841,1.01,1.851,1.822,3.03,2.434
		c1.178,0.612,2.472,0.918,3.88,0.918c0.734,0,1.5-0.092,2.296-0.275c0.795-0.184,1.553-0.475,2.272-0.872
		c0.719-0.398,1.385-0.911,1.998-1.539c0.612-0.626,1.102-1.384,1.469-2.273l5.188,2.985c-0.52,1.224-1.262,2.303-2.226,3.237
		c-0.965,0.934-2.052,1.722-3.261,2.364c-1.209,0.644-2.502,1.133-3.879,1.47c-1.377,0.336-2.725,0.505-4.041,0.505
		c-2.326,0-4.453-0.49-6.382-1.469c-1.928-0.98-3.589-2.258-4.981-3.834c-1.394-1.576-2.48-3.367-3.26-5.372
		C12.873,93.137,12.483,91.094,12.483,89.012"/>
	<path fill="#FFFFFF" d="M55.55,106c-1.959,0-3.719-0.337-5.28-1.009c-1.561-0.673-2.885-1.584-3.972-2.733
		c-1.086-1.147-1.92-2.471-2.501-3.971c-0.582-1.5-0.873-3.077-0.873-4.729c0-1.684,0.291-3.275,0.873-4.775
		c0.581-1.5,1.415-2.825,2.501-3.972c1.087-1.148,2.411-2.059,3.972-2.732c1.561-0.672,3.321-1.01,5.28-1.01s3.711,0.338,5.258,1.01
		c1.545,0.673,2.862,1.584,3.949,2.732c1.086,1.147,1.92,2.472,2.502,3.972c0.581,1.5,0.872,3.091,0.872,4.775
		c0,1.652-0.291,3.229-0.872,4.729c-0.582,1.5-1.409,2.824-2.479,3.971c-1.073,1.149-2.388,2.06-3.949,2.733
		C59.27,105.663,57.509,106,55.55,106 M49.26,93.558c0,1.071,0.161,2.043,0.482,2.915c0.322,0.873,0.765,1.63,1.332,2.273
		c0.566,0.643,1.231,1.141,1.997,1.493c0.765,0.351,1.591,0.527,2.479,0.527s1.714-0.176,2.48-0.527
		c0.765-0.352,1.43-0.85,1.997-1.493c0.566-0.643,1.01-1.408,1.332-2.295c0.321-0.888,0.482-1.868,0.482-2.939
		c0-1.041-0.161-2.005-0.482-2.893c-0.322-0.887-0.766-1.653-1.332-2.295c-0.567-0.643-1.232-1.14-1.997-1.493
		c-0.766-0.351-1.592-0.528-2.48-0.528s-1.714,0.184-2.479,0.551c-0.766,0.367-1.431,0.873-1.997,1.515
		c-0.567,0.643-1.01,1.409-1.332,2.296C49.421,91.553,49.26,92.517,49.26,93.558"/>
	<path fill="#FFFFFF" d="M80.435,106c-2.021,0-3.995-0.321-5.923-0.964c-1.929-0.642-3.581-1.561-4.959-2.755l2.296-3.857
		c1.469,1.041,2.899,1.83,4.293,2.365c1.392,0.536,2.777,0.804,4.155,0.804c1.224,0,2.188-0.23,2.892-0.69
		c0.704-0.459,1.057-1.116,1.057-1.973c0-0.858-0.414-1.485-1.24-1.883c-0.826-0.397-2.174-0.856-4.041-1.378
		c-1.561-0.428-2.892-0.841-3.994-1.239c-1.102-0.398-1.99-0.85-2.663-1.355c-0.674-0.505-1.163-1.086-1.469-1.745
		c-0.307-0.657-0.46-1.446-0.46-2.364c0-1.224,0.237-2.326,0.712-3.306c0.474-0.979,1.14-1.813,1.997-2.503
		c0.857-0.688,1.86-1.216,3.008-1.584c1.148-0.367,2.395-0.55,3.742-0.55c1.805,0,3.497,0.26,5.074,0.781
		c1.576,0.52,3.022,1.362,4.339,2.524l-2.48,3.72c-1.225-0.919-2.411-1.592-3.559-2.021c-1.147-0.428-2.288-0.642-3.42-0.642
		c-1.041,0-1.913,0.214-2.617,0.642c-0.705,0.429-1.056,1.119-1.056,2.067c0,0.429,0.084,0.78,0.253,1.056
		c0.167,0.275,0.436,0.52,0.803,0.734c0.367,0.215,0.849,0.422,1.446,0.62c0.597,0.199,1.339,0.406,2.227,0.62
		c1.653,0.429,3.068,0.858,4.247,1.285c1.178,0.43,2.142,0.919,2.893,1.47c0.749,0.551,1.301,1.187,1.653,1.905
		c0.351,0.72,0.527,1.584,0.527,2.594c0,2.357-0.872,4.218-2.616,5.579C85.807,105.319,83.434,106,80.435,106"/>
	<path fill="#FFFFFF" d="M107.662,104.302c-0.826,0.367-1.836,0.734-3.03,1.102c-1.194,0.367-2.449,0.55-3.765,0.55
		c-0.857,0-1.661-0.107-2.411-0.321c-0.75-0.214-1.408-0.558-1.974-1.033c-0.567-0.474-1.018-1.086-1.355-1.836
		c-0.337-0.75-0.504-1.66-0.504-2.732V86.211h-3.168v-4.729h3.168v-7.805h6.152v7.805h5.051v4.729h-5.051v11.754
		c0,0.858,0.222,1.462,0.666,1.814c0.443,0.352,0.987,0.528,1.63,0.528c0.642,0,1.27-0.107,1.882-0.321
		c0.612-0.214,1.102-0.398,1.469-0.551L107.662,104.302z"/>
	<path fill="#FFFFFF" d="M116.522,106c-1.163,0-2.25-0.191-3.26-0.574c-1.01-0.382-1.882-0.918-2.617-1.607
		c-0.734-0.688-1.308-1.492-1.722-2.41c-0.413-0.919-0.619-1.929-0.619-3.031c0-1.132,0.252-2.181,0.757-3.145
		c0.505-0.964,1.209-1.783,2.112-2.457c0.903-0.672,1.982-1.2,3.237-1.584c1.255-0.381,2.632-0.573,4.132-0.573
		c1.072,0,2.12,0.092,3.145,0.276c1.026,0.183,1.936,0.443,2.732,0.78v-1.377c0-1.592-0.451-2.817-1.354-3.674
		c-0.903-0.856-2.243-1.285-4.017-1.285c-1.286,0-2.542,0.229-3.765,0.688c-1.225,0.459-2.48,1.133-3.765,2.021l-1.883-3.903
		c3.092-2.05,6.428-3.077,10.009-3.077c3.459,0,6.145,0.85,8.059,2.549c1.912,1.698,2.869,4.155,2.869,7.369v7.484
		c0,0.643,0.115,1.102,0.344,1.378c0.23,0.275,0.604,0.428,1.125,0.459v5.234c-1.041,0.214-1.944,0.321-2.709,0.321
		c-1.163,0-2.059-0.26-2.686-0.78c-0.628-0.52-1.018-1.209-1.171-2.066l-0.137-1.331c-1.072,1.408-2.373,2.479-3.903,3.213
		C119.904,105.633,118.267,106,116.522,106 M118.267,101.501c1.04,0,2.027-0.185,2.961-0.552c0.934-0.367,1.661-0.856,2.182-1.469
		c0.672-0.52,1.009-1.102,1.009-1.745V94.98c-0.734-0.275-1.53-0.497-2.387-0.666c-0.857-0.167-1.684-0.252-2.479-0.252
		c-1.592,0-2.893,0.361-3.903,1.08c-1.01,0.719-1.515,1.629-1.515,2.731c0,1.041,0.397,1.905,1.194,2.595
		C116.124,101.156,117.103,101.501,118.267,101.501"/>
	<path fill="#399DC9" d="M141.781,19.489c0,5.807-2.283,11.254-6.4,15.547c-1.174,1.227-0.875,2.192,0.82,2.068
		c4.797-0.357,9.331-2.244,12.815-5.73c4.242-4.24,6.128-10.033,5.754-15.965c-0.107-1.697-1.749-3.336-3.446-3.441
		c-2.532-0.159-5.038,0.096-7.41,0.77c-1.639,0.466-2.534,2.308-2.324,3.882C141.718,17.563,141.781,18.522,141.781,19.489"/>
	<path fill="#5CB079" d="M161.237,27.075c-0.792-0.572-1.608-1.09-2.452-1.551c-1.494-0.816-3.199,0.038-3.939,1.568
		c-1.049,2.176-2.454,4.172-4.204,5.918c-4.167,4.169-9.888,6.478-16.113,6.478c-0.138,0-0.276-0.001-0.417-0.007
		c-0.23-0.007,0.746,0.736,2.301,1.432c3.89,1.737,8.204,2.293,12.496,1.326c5.852-1.315,10.542-5.2,13.396-10.413
		C163.122,30.333,162.611,28.071,161.237,27.075"/>
	<path fill="#F7BD0F" d="M132.265,4.132c-1.275-1.124-3.596-1.124-4.871,0c-4.46,3.93-7.221,9.356-7.221,15.355
		c0,6,2.761,11.43,7.221,15.359c1.275,1.122,3.596,1.122,4.871,0c4.459-3.929,7.221-9.358,7.221-15.359
		C139.486,13.489,136.724,8.061,132.265,4.132"/>
</g>
</svg>
