<svg id="Capa_1" data-name="Capa 1" xmlns="http://www.w3.org/2000/svg" viewBox="0 0 643.85 643.85"><defs><style>.cls-1{fill:#e7eced;}.cls-2{fill:#59b079;}</style></defs><title>mujer_3</title><path class="cls-1" d="M139.55,542.31l110.71-47.47c6-3,10.88-12.69,14.32-19.61a9.45,9.45,0,0,0-8.5-13.59H177.78s-28.31-2.77-50.14-12.15c-12.79-5.49-17.19-12.74-9.2-24.13,23.39-33.29,71.72-111.67,73.29-192.61,0,0,2.68-124.6,125.61-125.61,71.71.6,105.58,42.8,121.36,77.87,8.8,19.57,12.57,40.9,14,62.31,5.1,77.15,44.39,147.72,62.7,177.87,6.21,10.23,3.21,23.85-7.06,30-16.84,10.07-37.45,6.45-37.45,6.45H392.06c-7.7,0-11.1,10.76-5.05,15.54A116.06,116.06,0,0,0,399.18,486l92.08,55.72a79.72,79.72,0,0,1,31.11,30.72,321.64,321.64,0,0,1-411.3-5.84A79.42,79.42,0,0,1,139.55,542.31Z"/><path class="cls-2" d="M321.93,0C144.13,0,0,144.14,0,321.93c0,97.45,43.37,184.72,111.79,243.76a79.22,79.22,0,0,1,27.77-23.39l110.71-47.47c6-3,10.88-12.69,14.32-19.61a9.45,9.45,0,0,0-8.5-13.59H177.79s-28.31-2.77-50.14-12.15c-12.79-5.49-17.19-12.74-9.2-24.13,23.39-33.29,71.72-111.67,73.29-192.61,0,0,2.68-124.6,125.61-125.61,71.71.6,105.58,42.8,121.36,77.87,8.8,19.57,12.57,40.9,14,62.31,5.1,77.15,44.39,147.72,62.7,177.87,6.21,10.23,3.21,23.85-7.06,30-16.85,10.07-37.46,6.45-37.46,6.45H392.06c-7.7,0-11.1,10.76-5.05,15.54A116.06,116.06,0,0,0,399.18,486l92.08,55.72a79.48,79.48,0,0,1,30.92,30.43c.32.3.67.58,1,.91,73.53-59,120.7-149.48,120.7-251.09C643.85,144.14,499.73,0,321.93,0Z"/></svg>