<svg id="Capa_1" data-name="Capa 1" xmlns="http://www.w3.org/2000/svg" viewBox="0 0 643.83 643.85"><defs><style>.cls-1{fill:#e7eced;}.cls-2{fill:#59b079;}</style></defs><title>hombre_3</title><path class="cls-1" d="M226.11,504.78l-96.06,52.4a86.32,86.32,0,0,0-15.42,11A321.72,321.72,0,0,0,528,569.21a85.22,85.22,0,0,0-16.93-11.35L408.21,506.44a39.22,39.22,0,0,1-21.68-35.08V431a155.36,155.36,0,0,0,9.73-12.51,236.68,236.68,0,0,0,32-64.43,32.31,32.31,0,0,0,22.91-30.73V280.25a32.16,32.16,0,0,0-10.76-23.87V194.1S453.17,97.2,321.94,97.2,203.49,194.1,203.49,194.1v62.27a32.12,32.12,0,0,0-10.76,23.87v43.08a32.3,32.3,0,0,0,14.89,27.1C218.39,397.28,246.57,431,246.57,431v39.36A39.27,39.27,0,0,1,226.11,504.78Z"/><path class="cls-2" d="M327.43,0C149.66-3,3.09,138.66,0,316.42-1.68,417.22,43.25,507.8,114.78,568A85.54,85.54,0,0,1,130,557.19l96.06-52.4a39.24,39.24,0,0,0,20.45-34.44V431s-28.2-33.72-38.95-80.58a32.31,32.31,0,0,1-14.89-27.1V280.23a32.16,32.16,0,0,1,10.76-23.87V194.09S190.68,97.18,321.91,97.18s118.44,96.91,118.44,96.91v62.27a32.12,32.12,0,0,1,10.76,23.87v43.08A32.31,32.31,0,0,1,428.21,354a236.68,236.68,0,0,1-32,64.43A155.35,155.35,0,0,1,386.51,431v40.36a39.21,39.21,0,0,0,21.68,35.08L511,557.85a85.65,85.65,0,0,1,16.89,11.32c69.37-57.85,114.18-144.34,115.84-241.75C646.84,149.66,505.2,3.08,327.43,0Z"/></svg>