<svg id="Capa_1" data-name="Capa 1" xmlns="http://www.w3.org/2000/svg" viewBox="0 0 643.83 643.85"><defs><style>.cls-1{fill:#434142;}.cls-2{fill:#0092c6;}.cls-3{fill:#20ab6c;}.cls-4{fill:#ffd548;}</style></defs><title>Mesa de trabajo 1 copia 6</title><circle class="cls-1" cx="321.91" cy="321.91" r="321.91"/><path class="cls-2" d="M382.92,454.63c46.51-46.5,69.68-110.92,65.23-181.41-.91-14.38-15.93-29.38-30.32-30.28-5.51-.34-11.07-.52-16.54-.52a248.35,248.35,0,0,0-67.91,9.3c-13.8,3.92-21.19,20.57-19.44,33.67a268,268,0,0,1,2.38,35.73A270.22,270.22,0,0,1,295.7,424.92a288.29,288.29,0,0,1-58.87,89.45,30.56,30.56,0,0,0-4.14,5.22,29.27,29.27,0,0,0,4.77,0C294.38,515.36,344.68,492.89,382.92,454.63Z"/><path class="cls-3" d="M529.94,420.84a266.59,266.59,0,0,0-28-17.71,18.46,18.46,0,0,0-8.92-2.35c-8.64,0-17.54,6.41-22.15,16a268.71,268.71,0,0,1-52.34,73.68c-44.1,44.13-102,71.42-165.8,78.63a227.41,227.41,0,0,0,86.52,17.34,218.61,218.61,0,0,0,48-5.35c64.17-14.42,118.18-56.46,152.11-118.4C546.24,450,541.59,429.29,529.94,420.84Z"/><path class="cls-4" d="M183.78,146.72h0c-5.17-4.56-13-7.18-21.43-7.18s-16.25,2.62-21.43,7.18C88,193.39,58.78,255.32,58.78,321.11S88,448.84,140.93,495.52c5.17,4.55,13,7.16,21.43,7.16s16.26-2.61,21.43-7.16c53-46.67,82.14-108.62,82.14-174.41S236.76,193.38,183.78,146.72Z"/></svg>