<?xml version="1.0" encoding="UTF-8" standalone="no"?>
<!-- Created with Inkscape (http://www.inkscape.org/) -->

<svg
   xmlns:dc="http://purl.org/dc/elements/1.1/"
   xmlns:cc="http://creativecommons.org/ns#"
   xmlns:rdf="http://www.w3.org/1999/02/22-rdf-syntax-ns#"
   xmlns:svg="http://www.w3.org/2000/svg"
   xmlns="http://www.w3.org/2000/svg"
   xmlns:sodipodi="http://sodipodi.sourceforge.net/DTD/sodipodi-0.dtd"
   xmlns:inkscape="http://www.inkscape.org/namespaces/inkscape"
   id="svg2"
   version="1.1"
   inkscape:version="0.91 r13725"
   xml:space="preserve"
   width="170"
   height="170"
   viewBox="0 0 170 170"
   sodipodi:docname="construccion.svg"><metadata
     id="metadata8"><rdf:RDF><cc:Work
         rdf:about=""><dc:format>image/svg+xml</dc:format><dc:type
           rdf:resource="http://purl.org/dc/dcmitype/StillImage" /><dc:title></dc:title></cc:Work></rdf:RDF></metadata><defs
     id="defs6"><clipPath
       clipPathUnits="userSpaceOnUse"
       id="clipPath16"><path
         d="M 0,136 136,136 136,0 0,0 0,136 Z"
         id="path18"
         inkscape:connector-curvature="0" /></clipPath><clipPath
       clipPathUnits="userSpaceOnUse"
       id="clipPath24"><path
         d="m 0,136 136,0 0,-135.999389648 -136,0 L 0,136 Z"
         id="path26"
         inkscape:connector-curvature="0" /></clipPath><clipPath
       clipPathUnits="userSpaceOnUse"
       id="clipPath40"><path
         d="M 0,136 136,136 136,0 0,0 0,136 Z"
         id="path42"
         inkscape:connector-curvature="0" /></clipPath><clipPath
       clipPathUnits="userSpaceOnUse"
       id="clipPath48"><path
         d="m 25.9821,113.032 82.0319,0 0,-95.0414 -82.0319,0 0,95.0414 z"
         id="path50"
         inkscape:connector-curvature="0" /></clipPath></defs><sodipodi:namedview
     pagecolor="#ffffff"
     bordercolor="#666666"
     borderopacity="1"
     objecttolerance="10"
     gridtolerance="10"
     guidetolerance="10"
     inkscape:pageopacity="0"
     inkscape:pageshadow="2"
     inkscape:window-width="640"
     inkscape:window-height="480"
     id="namedview4"
     showgrid="false"
     inkscape:zoom="1.3882353"
     inkscape:cx="85"
     inkscape:cy="85"
     inkscape:window-x="0"
     inkscape:window-y="21"
     inkscape:window-maximized="0"
     inkscape:current-layer="g10" /><g
     id="g10"
     inkscape:groupmode="layer"
     inkscape:label="construccion"
     transform="matrix(1.25,0,0,-1.25,0,170)"><g
       id="g12"><g
         id="g14"
         clip-path="url(#clipPath16)"><g
           id="g20"><g
             id="g22" /><g
             id="g28"><g
               clip-path="url(#clipPath24)"
               id="g30"><g
                 transform="translate(67.9998,136.0002)"
                 id="g32"><path
                   d="M 0,0 C -37.555,0 -68,-30.444 -68,-67.999 -68,-105.555 -37.555,-136 0,-136 c 37.555,0 68,30.445 68,68.001 C 68,-30.444 37.555,0 0,0"
                   style="fill:#edb001;fill-opacity:1;fill-rule:evenodd;stroke:none"
                   id="path34"
                   inkscape:connector-curvature="0" /></g></g></g></g></g></g><g
       id="g36"><g
         id="g38"
         clip-path="url(#clipPath40)"><g
           id="g44"><g
             id="g46" /><g
             id="g52"><g
               clip-path="url(#clipPath48)"
               id="g54"><g
                 transform="translate(61.7459,78.7733)"
                 id="g56"><path
                   d="m 0,0 10.517,0 c 1.16,0 2.093,0.961 2.093,2.143 l 0,29.972 c 0,1.18 -0.933,2.143 -2.093,2.143 L 0,34.258 c -1.162,0 -2.106,-0.963 -2.106,-2.143 l 0,-29.972 C -2.106,0.961 -1.162,0 0,0 M 42.232,2.143 C 40.928,0 37.836,-3.147 30.944,-6.094 c -0.134,-0.054 -1.611,-0.711 -2.074,0.49 -0.503,1.317 0.286,2.175 0.823,2.406 6.757,2.885 7.425,5.813 8.411,7.18 -1.11,4.36 -3.986,17.888 -21.282,23.388 l 0,-25.227 c 0,-3.543 -2.834,-6.419 -6.305,-6.419 L 0,-4.276 c -3.484,0 -6.318,2.876 -6.318,6.419 l 0,25.32 C -21.026,23.187 -26.201,9.608 -27.671,3.731 c 0.053,-0.072 0.124,-0.124 0.155,-0.209 0.011,-0.011 0.082,-0.145 0.237,-0.353 0.739,-1.068 3.552,-4.435 11.235,-7.716 0.534,-0.23 1.202,-1.183 0.555,-2.55 -0.718,-1.539 -1.838,-1.09 -1.972,-1.025 -6.944,2.968 -10.189,6.428 -11.585,8.122 l -6.718,0 0,-4.547 c 0,0 3.697,-3.241 9.994,-6.68 1.428,-0.784 2.99,-1.579 4.683,-2.342 0.576,-0.262 1.159,-0.513 1.767,-0.773 6.45,-2.698 14.482,-4.924 23.519,-4.924 9.061,0 20.203,3.187 26.664,5.593 0.636,0.238 1.262,0.479 1.869,0.731 2.085,0.837 3.482,1.715 5.167,2.561 5.627,2.845 8.369,5.384 8.369,5.384 l 0,7.14 -4.036,0 z M 29.661,-18.661 c -1.18,-0.461 -2.413,-0.899 -3.697,-1.317 -6.205,-2.039 -13.569,-3.575 -21.804,-3.575 -8.054,0 -15.253,1.632 -21.356,3.837 -1.364,0.501 -2.668,1.014 -3.922,1.558 -2.722,1.179 -5.186,2.435 -7.313,3.658 -0.596,-1.881 -0.596,-4.295 0.145,-6.763 1.315,-4.37 4.467,-7.287 7.27,-6.942 0.145,-5.331 0.463,-10.172 1.12,-11.604 1.664,-3.637 15.952,-19.068 18.055,-20.133 2.096,-1.079 12.613,-1.162 14.462,0 1.84,1.158 14.892,16.276 16.167,20.133 0.492,1.515 0.729,6.345 0.821,11.637 2.855,-0.525 6.131,2.424 7.477,6.909 0.658,2.184 0.718,4.327 0.318,6.105 -2.219,-1.172 -4.816,-2.374 -7.743,-3.503"
                   style="fill:#ffffff;fill-opacity:1;fill-rule:evenodd;stroke:none"
                   id="path58"
                   inkscape:connector-curvature="0" /></g></g></g></g></g></g></g></svg>