<?xml version="1.0" encoding="utf-8"?>
<!-- Generator: Adobe Illustrator 20.0.0, SVG Export Plug-In . SVG Version: 6.00 Build 0)  -->
<svg version="1.1" id="Capa_1" xmlns="http://www.w3.org/2000/svg" xmlns:xlink="http://www.w3.org/1999/xlink" x="0px" y="0px"
	 viewBox="0 0 463.8 463.8" style="enable-background:new 0 0 463.8 463.8;" xml:space="preserve">
<style type="text/css">
	.st0{fill:#EDB001;}
	.st1{fill:#FFFFFF;}
</style>
<g>
	<circle class="st0" cx="231.9" cy="231.9" r="231.9"/>
</g>
<path class="st1" d="M373.3,240.5c-10.3,0-19.2,5.5-24.3,13.6l-73.9-18.8c0.1-1.5,0.2-3,0.2-4.6c0-13.1-5.3-25-13.9-33.6l11.7-20.2
	l31.7,10.1c1.4,5.7,6,10.2,12.2,11.1c8,1.2,15.5-4.4,16.7-12.5c1.2-8-4.4-15.5-12.5-16.7c-4.5-0.6-8.7,0.8-11.8,3.6l-28.5-9.1
	l16-27.6c0.9,0.2,1.7,0.5,2.6,0.7c15.7,2.3,30.2-8.6,32.5-24.3s-8.6-30.2-24.3-32.5c-15.7-2.3-30.2,8.6-32.5,24.3
	c-1.4,9.4,2.1,18.4,8.4,24.6l-34.5,59.6c-6.4-3.2-13.6-5.1-21.3-5.1c-11,0-21,3.7-29.1,10l-9-10.3l13-35c5.7-1.1,10.5-5.6,11.7-11.7
	c1.5-8-3.7-15.7-11.7-17.2c-8-1.5-15.7,3.7-17.2,11.7c-0.8,4.4,0.4,8.7,3.1,12l-10.1,27.2l-27.9-32c2.3-3.7,3.9-8,4.3-12.7
	c1.3-15.8-10.4-29.7-26.2-31s-29.7,10.4-31,26.2c-1.3,15.8,10.4,29.7,26.2,31c5.6,0.5,11-0.8,15.6-3.2l14.2,16.2l-46.3,9.6
	c-1.5-1.6-3.3-2.9-5.5-3.7c-7.6-2.8-16.1,1.1-18.9,8.7c-2.8,7.6,1.1,16.1,8.7,18.9c7.6,2.8,16.1-1.1,18.9-8.7
	c0.1-0.2,0.1-0.3,0.1-0.5l54.4-11.3l23.3,26.7c-5.1,7.6-8.1,16.7-8.1,26.5c0,4.4,0.7,8.7,1.8,12.8l-67.2,32.1
	c-4.2-6.9-11.2-12-19.8-13.4c-15.6-2.5-30.3,8.2-32.8,23.8s8.2,30.3,23.8,32.8s30.3-8.2,32.8-23.8c0.3-1.6,0.3-3.2,0.3-4.7l69.2-33
	c7.2,10.7,18.5,18.2,31.7,20.4l1.1,15.8l-34.6,14.1c-1.6-1.2-3.5-2.1-5.6-2.6c-7.9-1.8-15.8,3.1-17.6,11c-1.8,7.9,3.1,15.8,11,17.6
	c7.9,1.8,15.8-3.1,17.6-11c0.1-0.3,0.1-0.7,0.1-1l30.1-12.2l2.7,40c-8.2,3.5-14.7,10.6-16.8,19.9c-3.5,15.4,6.1,30.8,21.5,34.4
	c15.4,3.5,30.8-6.1,34.4-21.5c3.5-15.4-6.1-30.8-21.5-34.4c-0.8-0.2-1.7-0.2-2.5-0.3l-4.6-69.7c16.2-2.5,29.7-13.2,36.1-27.8
	l14.7,3.8l2.5,33.9c-3.8,2.7-6.4,7.1-6.4,12.1c0,8.1,6.6,14.7,14.7,14.7s14.7-6.6,14.7-14.7c0-5.7-3.3-10.6-8-13l-2.2-29.1l43.3,11
	c0,0.2-0.1,0.4-0.1,0.6c0,15.8,12.8,28.7,28.7,28.7s28.7-12.8,28.7-28.7C402,253.4,389.2,240.5,373.3,240.5z"/>
</svg>
