<?xml version="1.0" encoding="UTF-8" standalone="no"?>
<!-- Created with Inkscape (http://www.inkscape.org/) -->

<svg
   xmlns:dc="http://purl.org/dc/elements/1.1/"
   xmlns:cc="http://creativecommons.org/ns#"
   xmlns:rdf="http://www.w3.org/1999/02/22-rdf-syntax-ns#"
   xmlns:svg="http://www.w3.org/2000/svg"
   xmlns="http://www.w3.org/2000/svg"
   xmlns:sodipodi="http://sodipodi.sourceforge.net/DTD/sodipodi-0.dtd"
   xmlns:inkscape="http://www.inkscape.org/namespaces/inkscape"
   id="svg2"
   version="1.1"
   inkscape:version="0.91 r13725"
   xml:space="preserve"
   width="170"
   height="170"
   viewBox="0 0 170 170"
   sodipodi:docname="habitat.svg"><metadata
     id="metadata8"><rdf:RDF><cc:Work
         rdf:about=""><dc:format>image/svg+xml</dc:format><dc:type
           rdf:resource="http://purl.org/dc/dcmitype/StillImage" /><dc:title></dc:title></cc:Work></rdf:RDF></metadata><defs
     id="defs6"><clipPath
       clipPathUnits="userSpaceOnUse"
       id="clipPath16"><path
         d="M 0,136 136,136 136,0 0,0 0,136 Z"
         id="path18"
         inkscape:connector-curvature="0" /></clipPath><clipPath
       clipPathUnits="userSpaceOnUse"
       id="clipPath24"><path
         d="m 0,136.001 136,0 0,-136.000267578 -136,0 L 0,136.001 Z"
         id="path26"
         inkscape:connector-curvature="0" /></clipPath><clipPath
       clipPathUnits="userSpaceOnUse"
       id="clipPath40"><path
         d="M 0,136 136,136 136,0 0,0 0,136 Z"
         id="path42"
         inkscape:connector-curvature="0" /></clipPath><clipPath
       clipPathUnits="userSpaceOnUse"
       id="clipPath48"><path
         d="m 28.9918,107.999 80.0092,0 0,-78.9967 -80.0092,0 0,78.9967 z"
         id="path50"
         inkscape:connector-curvature="0" /></clipPath></defs><sodipodi:namedview
     pagecolor="#ffffff"
     bordercolor="#666666"
     borderopacity="1"
     objecttolerance="10"
     gridtolerance="10"
     guidetolerance="10"
     inkscape:pageopacity="0"
     inkscape:pageshadow="2"
     inkscape:window-width="640"
     inkscape:window-height="480"
     id="namedview4"
     showgrid="false"
     inkscape:zoom="1.3882353"
     inkscape:cx="85"
     inkscape:cy="85"
     inkscape:window-x="0"
     inkscape:window-y="21"
     inkscape:window-maximized="0"
     inkscape:current-layer="g10" /><g
     id="g10"
     inkscape:groupmode="layer"
     inkscape:label="habitat"
     transform="matrix(1.25,0,0,-1.25,0,170)"><g
       id="g12"><g
         id="g14"
         clip-path="url(#clipPath16)"><g
           id="g20"><g
             id="g22" /><g
             id="g28"><g
               clip-path="url(#clipPath24)"
               id="g30"><g
                 transform="translate(67.9998,136.0007)"
                 id="g32"><path
                   d="m 0,0 c -37.555,0 -68,-30.445 -68,-68 0,-37.555 30.445,-68 68,-68 37.555,0 68,30.445 68,68 C 68,-30.445 37.555,0 0,0"
                   style="fill:#edb001;fill-opacity:1;fill-rule:evenodd;stroke:none"
                   id="path34"
                   inkscape:connector-curvature="0" /></g></g></g></g></g></g><g
       id="g36"><g
         id="g38"
         clip-path="url(#clipPath40)"><g
           id="g44"><g
             id="g46" /><g
             id="g52"><g
               clip-path="url(#clipPath48)"
               id="g54"><g
                 transform="translate(74.8074,45.9917)"
                 id="g56"><path
                   d="m 0,0 0,-16.988 -21.327,0 0,16.988 c 0,3.73 3.009,6.754 6.721,6.754 l 7.885,0 C -3.009,6.754 0,3.73 0,0 m -39.016,14.838 0,-24.314 c 0,-4.149 3.347,-7.513 7.476,-7.513 l 41.754,0 c 4.129,0 7.476,3.364 7.476,7.513 l 0,24.314 -28.354,22.133 -28.352,-22.133 z m 72.202,27.066 c -2.873,2.681 -8.707,7.2 -14.811,6.536 -3.39,-0.368 -6.356,-2.28 -8.709,-4.461 0.983,2.032 1.623,4.321 1.372,6.658 -0.529,4.918 -4.863,8.787 -7.613,10.776 -1.303,0.942 -3.102,0.746 -4.175,-0.454 -2.264,-2.534 -5.676,-7.243 -5.146,-12.161 0.091,-0.848 0.299,-1.663 0.588,-2.444 l -2.954,2.249 c -1.42,1.082 -3.382,1.082 -4.802,0 L -44.401,24.754 c -1.572,-1.195 -1.88,-3.444 -0.691,-5.023 1.189,-1.578 3.427,-1.889 4.998,-0.694 l 29.43,22.399 29.432,-22.399 c 1.57,-1.195 3.808,-0.884 4.998,0.694 1.189,1.579 0.88,3.828 -0.691,5.023 l -4.493,3.419 c 0.651,-0.041 1.308,-0.036 1.968,0.036 6.106,0.662 10.843,6.329 13.08,9.566 0.896,1.296 0.707,3.054 -0.444,4.129"
                   style="fill:#ffffff;fill-opacity:1;fill-rule:evenodd;stroke:none"
                   id="path58"
                   inkscape:connector-curvature="0" /></g></g></g></g></g></g></g></svg>