<?xml version="1.0" encoding="UTF-8" standalone="no"?>
<!-- Created with Inkscape (http://www.inkscape.org/) -->

<svg
   xmlns:dc="http://purl.org/dc/elements/1.1/"
   xmlns:cc="http://creativecommons.org/ns#"
   xmlns:rdf="http://www.w3.org/1999/02/22-rdf-syntax-ns#"
   xmlns:svg="http://www.w3.org/2000/svg"
   xmlns="http://www.w3.org/2000/svg"
   xmlns:sodipodi="http://sodipodi.sourceforge.net/DTD/sodipodi-0.dtd"
   xmlns:inkscape="http://www.inkscape.org/namespaces/inkscape"
   id="svg2"
   version="1.1"
   inkscape:version="0.91 r13725"
   xml:space="preserve"
   width="170"
   height="170"
   viewBox="0 0 170 170"
   sodipodi:docname="turismo.svg"><metadata
     id="metadata8"><rdf:RDF><cc:Work
         rdf:about=""><dc:format>image/svg+xml</dc:format><dc:type
           rdf:resource="http://purl.org/dc/dcmitype/StillImage" /><dc:title></dc:title></cc:Work></rdf:RDF></metadata><defs
     id="defs6"><clipPath
       clipPathUnits="userSpaceOnUse"
       id="clipPath16"><path
         d="M 0,136 136,136 136,0 0,0 0,136 Z"
         id="path18"
         inkscape:connector-curvature="0" /></clipPath><clipPath
       clipPathUnits="userSpaceOnUse"
       id="clipPath24"><path
         d="m 0,136.001 136,0 0,-136.000267578 -136,0 L 0,136.001 Z"
         id="path26"
         inkscape:connector-curvature="0" /></clipPath><clipPath
       clipPathUnits="userSpaceOnUse"
       id="clipPath40"><path
         d="M 0,136 136,136 136,0 0,0 0,136 Z"
         id="path42"
         inkscape:connector-curvature="0" /></clipPath><clipPath
       clipPathUnits="userSpaceOnUse"
       id="clipPath48"><path
         d="m 25.9993,104.004 80.9997,0 0,-71.0031 -80.9997,0 0,71.0031 z"
         id="path50"
         inkscape:connector-curvature="0" /></clipPath></defs><sodipodi:namedview
     pagecolor="#ffffff"
     bordercolor="#666666"
     borderopacity="1"
     objecttolerance="10"
     gridtolerance="10"
     guidetolerance="10"
     inkscape:pageopacity="0"
     inkscape:pageshadow="2"
     inkscape:window-width="640"
     inkscape:window-height="480"
     id="namedview4"
     showgrid="false"
     inkscape:zoom="1.3882353"
     inkscape:cx="85"
     inkscape:cy="85"
     inkscape:window-x="0"
     inkscape:window-y="21"
     inkscape:window-maximized="0"
     inkscape:current-layer="g10" /><g
     id="g10"
     inkscape:groupmode="layer"
     inkscape:label="turismo"
     transform="matrix(1.25,0,0,-1.25,0,170)"><g
       id="g12"><g
         id="g14"
         clip-path="url(#clipPath16)"><g
           id="g20"><g
             id="g22" /><g
             id="g28"><g
               clip-path="url(#clipPath24)"
               id="g30"><g
                 transform="translate(67.9998,136.0007)"
                 id="g32"><path
                   d="m 0,0 c -37.555,0 -68,-30.445 -68,-68 0,-37.555 30.445,-68 68,-68 37.555,0 68,30.445 68,68 C 68,-30.445 37.555,0 0,0"
                   style="fill:#edb001;fill-opacity:1;fill-rule:evenodd;stroke:none"
                   id="path34"
                   inkscape:connector-curvature="0" /></g></g></g></g></g></g><g
       id="g36"><g
         id="g38"
         clip-path="url(#clipPath40)"><g
           id="g44"><g
             id="g46" /><g
             id="g52"><g
               clip-path="url(#clipPath48)"
               id="g54"><g
                 transform="translate(93.9365,97.8937)"
                 id="g56"><path
                   d="M 0,0 1.33,2.308 C 2.032,3.522 1.617,5.072 0.406,5.771 -0.806,6.468 -2.354,6.057 -3.05,4.844 L -4.38,2.535 c -14.144,6.687 -31.279,1.516 -39.239,-12.292 2.638,2.025 6.237,2.263 9.117,0.599 2.88,-1.669 4.474,-4.908 4.036,-8.207 2.638,2.026 6.237,2.263 9.119,0.599 1.637,-0.946 2.798,-2.432 3.461,-4.125 l -16.819,-29.187 c -1.77,0.296 -3.562,0.5 -5.389,0.5 -11.284,0 -21.785,-5.776 -27.843,-15.315 l 55.687,0 c -4.109,6.473 -10.288,11.154 -17.348,13.531 l 16.101,27.935 c 1.795,0.267 3.659,0 5.3,-0.947 2.878,-1.663 4.475,-4.907 4.034,-8.206 2.641,2.026 6.24,2.263 9.117,0.599 2.877,-1.665 4.474,-4.908 4.039,-8.207 C 16.953,-26.379 12.859,-8.925 0,0"
                   style="fill:#ffffff;fill-opacity:1;fill-rule:evenodd;stroke:none"
                   id="path58"
                   inkscape:connector-curvature="0" /></g></g></g></g></g></g></g></svg>