<?xml version="1.0" encoding="utf-8"?>
<!-- Generator: Adobe Illustrator 17.0.0, SVG Export Plug-In . SVG Version: 6.00 Build 0)  -->
<!DOCTYPE svg PUBLIC "-//W3C//DTD SVG 1.1//EN" "http://www.w3.org/Graphics/SVG/1.1/DTD/svg11.dtd">
<svg version="1.1" xmlns="http://www.w3.org/2000/svg" xmlns:xlink="http://www.w3.org/1999/xlink" x="0px" y="0px" width="137px"
	 height="137px" viewBox="0 0 137 137" enable-background="new 0 0 137 137" xml:space="preserve">
<g id="Elipse_2_1_" enable-background="new    ">
	<g id="Elipse_2">
		<g>
			<circle fill="#EDB001" cx="68.5" cy="68.5" r="68.5"/>
		</g>
	</g>
</g>
<g id="Forma_2_1_" enable-background="new    ">
	<g id="Forma_2">
		<g>
			<path fill-rule="evenodd" clip-rule="evenodd" fill="#FFFFFF" d="M104.754,50.991c-3.281,0-6.565,3.28-13.129,3.28
				c-6.565,0-9.846-3.28-13.13-3.28c-1.546,0-3.281,1.64-3.281,3.28v22.96c0,7.269,3.281,16.401,16.412,16.401
				c13.129,0,16.41-9.132,16.41-16.401v-22.96C108.035,52.631,106.302,50.991,104.754,50.991z M80.138,66.572
				c0-2.266,1.836-4.101,4.103-4.101c2.265,0,4.102,1.836,4.102,4.101c0,2.264-1.837,4.1-4.102,4.1
				C81.974,70.672,80.138,68.836,80.138,66.572z M91.625,87.072c-8.206,0-9.846-6.559-9.846-6.559h19.693
				C101.472,80.513,99.831,87.072,91.625,87.072z M99.011,70.672c-2.266,0-4.103-1.836-4.103-4.1c0-2.266,1.837-4.101,4.103-4.101
				c2.264,0,4.102,1.836,4.102,4.101C103.113,68.836,101.275,70.672,99.011,70.672z M81.779,47.714
				c3.281,1.64,3.281,1.64,3.281,1.64V37.873c0-1.64-1.735-3.28-3.281-3.28c-3.283,0-6.565,3.28-13.13,3.28
				c-6.563,0-9.847-3.28-13.128-3.28v-0.002c-1.548,0-3.281,1.64-3.281,3.28v22.96c0,2.916,0.547,6.125,2.029,8.931
				c0.581,0.244,1.159,0.501,1.73,0.791c3.973,2.024,7.332,4.216,10.081,6.549c0.811,0.084,1.666,0.129,2.569,0.129
				c1.178,0,2.253-0.055,3.284-0.203v-9.634h-13.13c0,0,1.641-6.56,9.847-6.56c1.643,0,2.287,0.242,3.284,0.615v-7.175
				c0-3.007,1.199-5.519,3.281-6.56C78.495,46.074,79.82,46.736,81.779,47.714z M61.264,54.272c-2.266,0-4.102-1.836-4.102-4.1
				c0-2.265,1.836-4.101,4.102-4.101s4.103,1.836,4.103,4.101C65.367,52.436,63.53,54.272,61.264,54.272z M54.927,72.659
				c-3.395-1.727-6.796-2.419-9.95-2.419c-7.21,0-13.125,3.61-14.706,6.71c-2.271,4.458-1.745,8.937,2.715,11.207
				c4.46,2.27,6.124,4.518,4.419,7.863c-2.271,4.456-0.629,9.501,3.832,11.772c5.206,2.65,9.919,3.781,14.004,3.781
				c7.29,0,12.584-3.599,15.131-8.598C77.186,89.601,68.306,79.469,54.927,72.659z M40.022,82.614
				c-0.552,1.086-1.651,1.71-2.791,1.71c-0.477,0-0.962-0.109-1.417-0.342c-1.54-0.784-2.153-2.664-1.368-4.203
				c0.552-1.085,1.649-1.708,2.789-1.708c0.478,0,0.963,0.109,1.417,0.341C40.193,79.197,40.807,81.077,40.022,82.614z
				 M48.557,101.694c-0.663,1.301-1.983,2.05-3.349,2.05c-0.574,0-1.155-0.131-1.7-0.409c-1.848-0.939-2.581-3.198-1.642-5.047
				c0.663-1.301,1.982-2.049,3.348-2.049c0.574,0,1.156,0.131,1.701,0.409C48.762,97.589,49.497,99.849,48.557,101.694z
				 M51.235,79.901c-0.553,1.086-1.651,1.709-2.791,1.709c-0.478,0-0.963-0.109-1.417-0.341c-1.539-0.784-2.152-2.664-1.367-4.205
				c0.552-1.082,1.65-1.707,2.789-1.707c0.477,0,0.963,0.109,1.417,0.342C51.406,76.481,52.018,78.365,51.235,79.901z
				 M60.154,84.441c-0.552,1.085-1.65,1.709-2.789,1.709c-0.477,0-0.962-0.112-1.417-0.341c-1.54-0.784-2.152-2.667-1.368-4.205
				c0.553-1.084,1.65-1.707,2.789-1.707c0.478,0,0.963,0.11,1.418,0.342C60.327,81.02,60.939,82.904,60.154,84.441z M66.806,93.439
				c-0.553,1.083-1.651,1.708-2.79,1.708c-0.478,0-0.963-0.109-1.417-0.342c-1.541-0.784-2.154-2.663-1.369-4.203
				c0.554-1.086,1.651-1.708,2.79-1.71c0.478,0,0.963,0.111,1.418,0.341C66.976,90.018,67.589,91.901,66.806,93.439z"/>
		</g>
	</g>
</g>
</svg>
