<?xml version="1.0" encoding="utf-8"?>
<!-- Generator: Adobe Illustrator 17.0.0, SVG Export Plug-In . SVG Version: 6.00 Build 0)  -->
<!DOCTYPE svg PUBLIC "-//W3C//DTD SVG 1.1//EN" "http://www.w3.org/Graphics/SVG/1.1/DTD/svg11.dtd">
<svg version="1.1" id="Elipse_2_copia_1_" xmlns="http://www.w3.org/2000/svg" xmlns:xlink="http://www.w3.org/1999/xlink" x="0px"
	 y="0px" width="196.5px" height="199.539px" viewBox="0 0 196.5 199.539" enable-background="new 0 0 196.5 199.539"
	 xml:space="preserve">
<path fill-rule="evenodd" clip-rule="evenodd" fill="#EDB001" d="M99,3.539c53.572,0,97,43.428,97,97s-43.428,97-97,97
	s-97-43.428-97-97S45.428,3.539,99,3.539z"/>
<g>
	<path fill="#FFFFFF" d="M159.684,135.138c0.881-2.622,1.545-5.321,1.545-8.078c0.002-2.976-3.53-3.783-4.672-1.824
		c-1.198,2.062-2.211,4.233-3.423,6.289c-2.83,4.818-6.358,8.819-12.282,9.848c-1.01,0.175-2.125,0.177-3.142,0.126
		c-1.32-0.066-2.747-0.411-3.969-0.898c-4.733-1.879-7.665-6.364-10.9-10.013c-0.513-0.578-1-1.184-1.549-1.726
		c-0.93-0.91-1.949-1.457-3.237-0.954c-1.258,0.497-1.913,1.519-2.045,2.833c-0.107,1.105,0.337,2.242,0.739,3.25
		c0.857,2.154,2.227,4.177,3.667,5.987c0.573,0.721,7.532,8.527,10.72,22.998c1.376,6.24,0.464,12.028,0.118,13.886
		c6.87-2.933,13.254-6.773,19.031-11.348c-0.06-5.431-0.138-12.387-0.221-14.653c-0.053-1.398,0.258-2.433,1.298-3.444
		C154.975,143.901,158.056,139.994,159.684,135.138z"/>
	<ellipse fill="#FFFFFF" cx="106.537" cy="77.39" rx="15.703" ry="15.605"/>
	<path fill="#FFFFFF" d="M83.245,181.641c-0.075-4.323-0.212-8.65-0.373-12.974c-0.066-1.773,0.329-3.082,1.644-4.358
		c4.569-4.448,8.459-9.394,10.523-15.532c1.117-3.316,1.711-6.743,1.952-10.219c0.039-0.561-0.037-1.098-0.188-1.613
		c-0.327-1.103-1.745-2.327-2.089-2.472c-1.698-0.719-2.43-0.283-3.63,1.78c-1.52,2.609-2.799,5.356-4.328,7.958
		c-3.584,6.091-8.046,11.158-15.539,12.455c-1.276,0.219-2.693,0.224-3.98,0.161c-1.667-0.085-3.474-0.522-5.019-1.135
		c-5.987-2.378-9.696-8.051-13.788-12.667c-0.649-0.736-1.262-1.502-1.962-2.186c-1.168-1.152-2.462-1.845-4.088-1.207
		c-1.593,0.626-2.426,1.921-2.587,3.579c-0.137,1.401,0.425,2.839,0.934,4.114c1.084,2.73,2.816,5.286,4.635,7.573
		c0.727,0.909,1.474,1.797,2.237,2.673c1.394,1.591,2.848,3.124,4.345,4.621c1.369,1.37,2.752,2.981,4.362,4.076
		c0.788,0.539,1.815,2.496,1.871,3.616c0.064,1.229,0.13,2.336,0.197,3.391c7.537,4.139,15.785,7.135,24.511,8.786
		C83,181.919,83.13,181.78,83.245,181.641z"/>
	<path fill="#FFFFFF" d="M138.189,124.871c-3.435-0.069-7.57,3.252-6.997,7.238c0.573,3.958,3.135,7.24,6.997,7.24
		c3.865,0,7-3.243,7-7.24C145.189,128.111,142.674,124.958,138.189,124.871z"/>
	<path fill="#FFFFFF" d="M98.5,183.539c9.4,0,18.426-1.576,26.858-4.44c-0.044-0.136-0.123-0.264-0.248-0.38
		c-2.433-2.267-10.225-36.95-10.506-43.617c-0.108-2.626-1.167-8.488,1.591-10.187c2.774-1.715,7.529-0.654,10.637-0.782
		c3.489-0.145,6.963-0.628,10.333-1.546c2.101-0.573,5.011-0.799,6.678-2.339c2.247-2.071,1.43-6.455,0.093-8.796
		c-1.437-2.517-4.22-2.638-6.851-2.843c-4.114-0.315-8.181-0.953-12.236-1.707c-12.428-2.309-24.557-5.656-34.852-13.269
		c-8.3-6.138-12.885-14.719-16.725-23.88c-2.215-5.278-4.268-10.629-7.088-15.635c-1.052-1.871-2.755-2.58-4.865-2.34
		c-2.086,0.241-3.161,1.588-3.848,3.419c-0.732,1.94-0.715,3.963-0.595,5.955c0.256,4.318,0.842,8.617,1.771,12.842
		c1.601,7.339,4.201,14.421,7.631,21.112c2.669,5.207,6.829,9.746,8.476,15.443c1.096,3.804,1.313,8.12,1.298,12.366
		c5.761,2.819,9.739,8.695,9.739,15.508c0,1.034-0.098,2.046-0.274,3.029c0.442-0.803,0.889-1.598,1.313-2.411
		c0.705-1.342,1.405-2.685,2.171-3.991c0.671-1.154,1.915-3.297,4.431-3.297c0.876,0,1.715,0.266,2.63,0.699
		c0.312,0.146,1.783,1.071,2.462,2.235c0.554,0.95,1.018,2.292,0.876,4.03c-0.325,3.955-0.956,7.493-2.078,10.817
		c-1.93,5.734-5.461,10.975-11.123,16.485c-0.742,0.719-0.964,1.34-0.919,2.558c0.161,4.34,0.303,8.683,0.373,13.022l0.017,0.926
		c0,0-0.019,0.021-0.023,0.026C89.837,183.199,94.128,183.539,98.5,183.539z"/>
	<ellipse fill="#FFFFFF" cx="68.387" cy="138.426" rx="10.137" ry="10.074"/>
</g>
</svg>
