<?xml version="1.0" encoding="utf-8"?>
<!-- Generator: Adobe Illustrator 17.0.0, SVG Export Plug-In . SVG Version: 6.00 Build 0)  -->
<!DOCTYPE svg PUBLIC "-//W3C//DTD SVG 1.1//EN" "http://www.w3.org/Graphics/SVG/1.1/DTD/svg11.dtd">
<svg version="1.1" id="Shape_1_1_" xmlns="http://www.w3.org/2000/svg" xmlns:xlink="http://www.w3.org/1999/xlink" x="0px" y="0px"
	 width="53px" height="48px" viewBox="0 0 53 48" enable-background="new 0 0 53 48" xml:space="preserve">
<g id="Shape_1">
	<g>
		<path fill-rule="evenodd" clip-rule="evenodd" fill="#FFFFFF" d="M22.003,25.412v5.243c0,0.319,0.215,0.455,0.343,0.508
			c0.128,0.052,0.377,0.107,0.605-0.119l6.727-6.658c0.276-0.272,0.648-0.425,1.038-0.425h4.216c1.572,0,2.851-1.266,2.851-2.822
			V2.822c0-1.556-1.279-2.822-2.851-2.822H2.851C1.279-0.001,0,1.265,0,2.822v18.317c0,1.556,1.279,2.822,2.851,2.822h17.685
			C21.346,23.96,22.003,24.611,22.003,25.412z M32.464,20.148h-6.786c-0.81,0-1.467-0.65-1.467-1.452s0.657-1.452,1.467-1.452h6.786
			c0.81,0,1.467,0.65,1.467,1.452C33.931,19.498,33.274,20.148,32.464,20.148z M5.319,3.812h27.145c0.81,0,1.467,0.65,1.467,1.451
			c0,0.802-0.657,1.452-1.467,1.452H5.319c-0.81,0-1.467-0.65-1.467-1.452C3.852,4.462,4.509,3.812,5.319,3.812z M5.319,10.528
			h27.145c0.81,0,1.467,0.65,1.467,1.452c0,0.802-0.657,1.451-1.467,1.451H5.319c-0.81,0-1.467-0.65-1.467-1.451
			C3.852,11.178,4.509,10.528,5.319,10.528z M18.891,20.148H5.319c-0.81,0-1.467-0.65-1.467-1.452s0.657-1.452,1.467-1.452h13.572
			c0.81,0,1.467,0.65,1.467,1.452C20.358,19.498,19.701,20.148,18.891,20.148z M50.148,16.791h-9.432v4.348
			c0,3.157-2.596,5.726-5.786,5.726h-3.608l-6.297,6.233c-0.669,0.662-1.558,1.013-2.464,1.013c-0.45,0-0.905-0.087-1.339-0.265
			c-1.308-0.536-2.154-1.788-2.154-3.19v-3.791h-3.852v11.064c0,1.556,1.279,2.822,2.851,2.822h5.861
			c0.389,0,0.762,0.153,1.038,0.425l6.727,6.658c0.228,0.225,0.477,0.171,0.605,0.119c0.128-0.052,0.342-0.188,0.342-0.508v-5.243
			c0-0.802,0.657-1.452,1.467-1.452h16.04c1.572,0,2.851-1.266,2.851-2.821V19.612C53,18.056,51.721,16.791,50.148,16.791z
			 M47.681,33.581H34.109c-0.81,0-1.467-0.65-1.467-1.452s0.657-1.452,1.467-1.452h13.572c0.81,0,1.467,0.651,1.467,1.452
			S48.491,33.581,47.681,33.581z"/>
	</g>
</g>
</svg>
