<?xml version="1.0" encoding="utf-8"?>
<!-- Generator: Adobe Illustrator 17.0.0, SVG Export Plug-In . SVG Version: 6.00 Build 0)  -->
<!DOCTYPE svg PUBLIC "-//W3C//DTD SVG 1.1//EN" "http://www.w3.org/Graphics/SVG/1.1/DTD/svg11.dtd">
<svg version="1.1" id="Forma_1_1_" xmlns="http://www.w3.org/2000/svg" xmlns:xlink="http://www.w3.org/1999/xlink" x="0px" y="0px"
	 width="51px" height="51px" viewBox="0 0 51 51" enable-background="new 0 0 51 51" xml:space="preserve">
<g id="Forma_1">
	<g>
		<path fill-rule="evenodd" clip-rule="evenodd" fill="#FFFFFF" d="M25.499,0.005c-14.057,0-25.493,11.437-25.493,25.493
			s11.436,25.493,25.493,25.493c14.057,0,25.493-11.437,25.493-25.493S39.556,0.005,25.499,0.005z M31.839,26.396h-4.147
			c0,6.627,0,14.785,0,14.785h-6.146c0,0,0-8.08,0-14.785h-2.922v-5.225h2.922v-3.379c0-2.42,1.15-6.202,6.202-6.202l4.552,0.018
			v5.072c0,0-2.767,0-3.306,0c-0.538,0-1.302,0.269-1.302,1.423v3.071h4.683L31.839,26.396z"/>
	</g>
</g>
</svg>
