<?xml version="1.0" encoding="utf-8"?>
<!-- Generator: Adobe Illustrator 17.0.0, SVG Export Plug-In . SVG Version: 6.00 Build 0)  -->
<!DOCTYPE svg PUBLIC "-//W3C//DTD SVG 1.1//EN" "http://www.w3.org/Graphics/SVG/1.1/DTD/svg11.dtd">
<svg version="1.1" id="Forma_8_1_" xmlns="http://www.w3.org/2000/svg" xmlns:xlink="http://www.w3.org/1999/xlink" x="0px" y="0px"
	 width="51px" height="51px" viewBox="0 0 51 51" enable-background="new 0 0 51 51" xml:space="preserve">
<g id="Forma_8">
	<g>
		<path fill-rule="evenodd" clip-rule="evenodd" fill="#FFFFFF" d="M25.505-0.005c-14.082,0-25.498,11.417-25.498,25.498
			s11.417,25.499,25.498,25.499c14.082,0,25.499-11.417,25.499-25.499S39.587-0.005,25.505-0.005z M28.128,33.798
			c-2.909,3.747-8.289,4.846-12.666,3.375c-4.643-1.525-8.021-6.203-7.92-11.106c-0.23-6.059,5.077-11.657,11.141-11.729
			c3.09-0.263,6.096,0.938,8.438,2.895c-0.96,1.054-1.937,2.098-2.978,3.073c-2.062-1.25-4.539-2.206-6.947-1.357
			c-3.881,1.104-6.233,5.687-4.794,9.484c1.188,3.968,6.012,6.144,9.794,4.477c1.957-0.7,3.246-2.505,3.814-4.447
			c-2.244-0.045-4.489-0.017-6.731-0.08c-0.007-1.334-0.012-2.664-0.007-3.998c3.743-0.007,7.49-0.017,11.238,0.015
			C30.737,27.672,30.256,31.172,28.128,33.798z M40.527,27.756c-0.012,1.122-0.017,2.238-0.023,3.358c-1.116-0.005-2.234,0-3.343,0
			c-0.012-1.12-0.012-2.237-0.022-3.353c-1.116-0.013-2.24-0.017-3.356-0.023v-3.343c1.116-0.008,2.232-0.012,3.356-0.023
			c0.005-1.116,0.015-2.237,0.027-3.355h3.338c0.005,1.118,0.015,2.239,0.023,3.355c1.116,0.01,2.237,0.017,3.353,0.023v3.343
			C42.764,27.744,41.643,27.748,40.527,27.756z"/>
	</g>
</g>
</svg>
