<?xml version="1.0" encoding="utf-8"?>
<!-- Generator: Adobe Illustrator 17.0.0, SVG Export Plug-In . SVG Version: 6.00 Build 0)  -->
<!DOCTYPE svg PUBLIC "-//W3C//DTD SVG 1.1//EN" "http://www.w3.org/Graphics/SVG/1.1/DTD/svg11.dtd">
<svg version="1.1" id="Forma_1_1_" xmlns="http://www.w3.org/2000/svg" xmlns:xlink="http://www.w3.org/1999/xlink" x="0px" y="0px"
	 width="52px" height="52px" viewBox="0 0 52 52" enable-background="new 0 0 52 52" xml:space="preserve">
<g id="Forma_1">
	<g>
		<path fill-rule="evenodd" clip-rule="evenodd" fill="#FFFFFF" d="M26.434-0.001c-14.098,0-25.566,11.469-25.566,25.567
			c0,4.46,1.167,8.841,3.377,12.696L0.045,50.859c-0.101,0.303-0.028,0.634,0.19,0.867C0.401,51.903,0.632,52,0.868,52
			c0.074,0,0.147-0.01,0.22-0.029l13.751-3.618c3.572,1.82,7.574,2.781,11.595,2.781c14.098,0,25.567-11.469,25.567-25.567
			C52.001,11.468,40.532-0.001,26.434-0.001z M42.388,37.175l-1.523,1.524c-1.924,1.925-4.071,2.9-6.379,2.9
			c-3.111,0-6.466-1.777-9.969-5.281l-8.835-8.834c-2.763-2.763-4.46-5.447-5.046-7.978c-0.711-3.074,0.186-5.89,2.667-8.369
			l1.525-1.525c0.98-0.98,2.565-1.221,3.793-0.571c2.307,1.221,4.697,5.222,4.962,5.674c0.479,0.838,0.625,1.705,0.419,2.447
			c-0.158,0.568-0.513,1.031-1.029,1.345c-0.7,0.586-1.521,1.315-1.666,1.501c-0.88,1.299-0.78,2.297,0.354,3.432l6.9,6.901
			c1.144,1.145,2.124,1.239,3.444,0.345c0.174-0.136,0.903-0.956,1.489-1.657c0.438-0.723,1.154-1.12,2.026-1.12
			c0.571,0,1.179,0.173,1.757,0.503c0.461,0.271,4.462,2.661,5.683,4.968C43.626,34.642,43.397,36.166,42.388,37.175z"/>
	</g>
</g>
</svg>
