<?xml version="1.0" encoding="utf-8"?>
<!-- Generator: Adobe Illustrator 17.0.0, SVG Export Plug-In . SVG Version: 6.00 Build 0)  -->
<!DOCTYPE svg PUBLIC "-//W3C//DTD SVG 1.1//EN" "http://www.w3.org/Graphics/SVG/1.1/DTD/svg11.dtd">
<svg version="1.1" id="Forma_1_1_" xmlns="http://www.w3.org/2000/svg" xmlns:xlink="http://www.w3.org/1999/xlink" x="0px" y="0px"
	 width="51px" height="51px" viewBox="0 0 51 51" enable-background="new 0 0 51 51" xml:space="preserve">
<g id="Forma_1">
	<g>
		<path fill-rule="evenodd" clip-rule="evenodd" fill="#FFFFFF" d="M25.5-0.001C11.417-0.001,0,11.417,0,25.5
			C0,39.582,11.417,51,25.5,51C39.582,51,51,39.582,51,25.5C51,11.415,39.582-0.001,25.5-0.001z M38.188,19.775l0.019,0.812
			c0,8.299-6.316,17.862-17.865,17.862c-3.544,0-6.843-1.04-9.623-2.821c0.492,0.056,0.991,0.091,1.499,0.091
			c2.942,0,5.648-1.006,7.796-2.687c-2.747-0.05-5.065-1.868-5.864-4.361c0.386,0.071,0.775,0.109,1.183,0.109
			c0.574,0,1.128-0.074,1.654-0.218c-2.872-0.579-5.036-3.114-5.036-6.155v-0.079c0.848,0.471,1.813,0.753,2.844,0.788
			c-1.684-1.126-2.792-3.048-2.792-5.225c0-1.15,0.308-2.227,0.848-3.155c3.094,3.799,7.723,6.299,12.94,6.561
			c-0.107-0.459-0.162-0.942-0.162-1.433c0-3.464,2.811-6.275,6.279-6.275c1.805,0,3.437,0.761,4.585,1.981
			c1.429-0.283,2.774-0.806,3.987-1.522c-0.47,1.467-1.463,2.696-2.761,3.475c1.267-0.15,2.481-0.492,3.605-0.989
			C40.482,17.79,39.414,18.896,38.188,19.775z"/>
	</g>
</g>
</svg>
